<?xml version="1.0" standalone="no"?>
<!DOCTYPE svg PUBLIC "-//W3C//DTD SVG 1.1//EN" "http://www.w3.org/Graphics/SVG/1.1/DTD/svg11.dtd" >
<svg xmlns="http://www.w3.org/2000/svg">
<metadata></metadata>
<defs>
<font id="canallightromainregular" horiz-adv-x="0" >
<font-face units-per-em="2048" ascent="1638" descent="-410" />
<missing-glyph horiz-adv-x="575" />
<glyph horiz-adv-x="2048" />
<glyph horiz-adv-x="2048" />
<glyph unicode="&#xd;" horiz-adv-x="682" />
<glyph unicode=" "  horiz-adv-x="575" />
<glyph unicode="&#x09;" horiz-adv-x="575" />
<glyph unicode="&#xa0;" horiz-adv-x="575" />
<glyph unicode="!" horiz-adv-x="536" d="M156 90q0 47 32.5 81t79.5 34t81 -33t34 -80t-34 -81t-81 -34t-79.5 34t-32.5 79zM184 506v1030h168v-1030h-168z" />
<glyph unicode="&#x22;" horiz-adv-x="696" d="M104 1536h150l-25 -532h-108zM440 1536h152l-27 -532h-108z" />
<glyph unicode="#" horiz-adv-x="1310" d="M59 487v138h263l40 323h-245v137h262l57 463l144 -20l-54 -443h324l57 463l144 -20l-56 -443h240v-137h-254l-39 -323h236v-138h-254l-62 -493l-143 20l59 473h-327l-62 -493l-143 20l59 473h-246zM469 625h324l38 323h-323z" />
<glyph unicode="$" horiz-adv-x="1214" d="M131 373l164 45q33 -98 67.5 -146.5t98.5 -83.5q76 -41 162 -41q127 0 207.5 80t80.5 205q0 106 -70.5 177t-250.5 145q-211 88 -297 180t-86 231q0 135 86 240q41 47 106 86q63 35 170 57v92h183v-102q92 -25 139 -59q68 -49 137 -166l-133 -86q-66 94 -107 123 q-59 43 -155 43q-113 0 -182.5 -64.5t-69.5 -167.5q0 -78 63.5 -136t223.5 -126q227 -94 321 -198.5t94 -262.5q0 -131 -49 -233q-45 -84 -106 -133q-57 -47 -176 -82v-109h-183v101q-131 14 -198 51q-84 43 -140 117q-57 73 -100 223z" />
<glyph unicode="%" horiz-adv-x="1554" d="M4 1216.5q0 163.5 106.5 274.5t264.5 111q160 0 265 -110t105 -275q0 -164 -105 -275t-263 -111t-265.5 111t-107.5 274.5zM162 1217q0 -102 60.5 -170t154.5 -68q92 0 152.5 67.5t60.5 172.5q0 102 -60.5 169.5t-150.5 67.5q-96 0 -156.5 -66.5t-60.5 -172.5zM260 41 l895 1542l152 -88l-891 -1542zM815 317.5q0 163.5 106.5 275.5t264.5 112q160 0 265 -111t105 -277q0 -164 -106.5 -274.5t-261.5 -110.5q-160 0 -266.5 111t-106.5 274.5zM973 319.5q0 -104.5 60.5 -171t154.5 -66.5q92 0 152.5 66.5t60.5 170.5q0 102 -60.5 170t-150.5 68 q-96 0 -156.5 -66.5t-60.5 -171z" />
<glyph unicode="&#x26;" horiz-adv-x="1425" d="M92 395q0 117 49 205t168 182q59 47 178 125q-86 113 -116 176q-35 70 -35 154q0 139 95 231.5t239 92.5q137 0 232 -91.5t95 -224.5q0 -59 -13 -97t-54 -87q-68 -84 -203 -187l322 -411l43 41l147 137l107 -125l-197 -182l260 -334h-211l-170 217q-115 -109 -223 -170 q-137 -76 -270 -76q-188 0 -315.5 122t-127.5 302zM262 414q0 -123 79 -205t198 -82q82 0 180 55q80 45 209 158l-342 442l-17 -12l-63 -43q-137 -94 -193 -162q-51 -63 -51 -151zM496 1239q0 -51 16 -74l104 -149l2 -6l7 -2l4 -9q127 94 167 140.5t40 103.5q0 74 -48.5 122 t-121.5 48q-72 0 -121 -50t-49 -124z" />
<glyph unicode="'" horiz-adv-x="356" d="M104 1536h148l-23 -530h-108z" />
<glyph unicode="(" horiz-adv-x="503" d="M102 776q0 338 66 660q25 129 61 235q20 63 62 158l160 -66q-94 -252 -127 -436q-47 -266 -48 -547q0 -297 48 -547q35 -186 127 -436l-160 -67l-31 73q-35 86 -55 162q-103 373 -103 811z" />
<glyph unicode=")" horiz-adv-x="503" d="M55 -203q90 252 125 436q47 250 47 547t-47 547q-33 182 -125 436l158 66l31 -74q27 -59 55 -162q102 -362 102 -813q0 -334 -65 -657q-31 -150 -60 -236q-29 -78 -63 -157z" />
<glyph unicode="*" horiz-adv-x="2656" d="M539 199l571 569l-567 567l116 117l566 -567l567 567l117 -117l-568 -567l570 -569l-115 -115l-571 569l-570 -569z" />
<glyph unicode="+" horiz-adv-x="2318" d="M379 733v133q0 18 20 19h654q20 0 20 20v635q0 18 25 19h129q20 0 20 -19v-629q0 -27 29 -26h643q20 0 20 -19v-137q0 -16 -18 -16h-653q-20 0 -21 -19v-676q0 -18 -16 -18h-141q-16 0 -17 18v674q0 20 -20 21h-658q-16 0 -16 20z" />
<glyph unicode="," horiz-adv-x="391" d="M102 223h187l-31 -573h-125z" />
<glyph unicode="-" horiz-adv-x="370" d="M0 371v131h371v-131h-371z" />
<glyph unicode="." horiz-adv-x="448" d="M111 90q0 47 33.5 81t80.5 34t80 -34t33 -81t-33 -80t-80 -33t-80.5 34t-33.5 79z" />
<glyph unicode="/" horiz-adv-x="1236" d="M88 -209l977 1978h152l-967 -1978h-162z" />
<glyph unicode="0" horiz-adv-x="1419" d="M160 756q0 346 157.5 574.5t395.5 228.5q231 0 389 -226.5t158 -562.5q0 -338 -158 -566.5t-393 -228.5q-229 0 -389 226.5t-160 554.5zM328 772q0 -276 108.5 -457.5t274.5 -181.5q158 0 268.5 184.5t110.5 450.5q0 270 -110 452.5t-271.5 182.5t-271 -182.5 t-109.5 -448.5z" />
<glyph unicode="1" horiz-adv-x="688" d="M123 1376v160h336v-1536h-172v1376h-164z" />
<glyph unicode="2" horiz-adv-x="1284" d="M129 0l559 647q104 121 176 223q90 127 90 238q0 123 -89 209t-218 86q-80 0 -148.5 -36t-107.5 -97q-41 -61 -51 -183h-172q10 115 33 175q47 135 169 216t275 81q201 0 339 -131.5t138 -323.5q0 -164 -121 -330q-86 -117 -208 -256l-316 -358h645v-160h-993z" />
<glyph unicode="3" horiz-adv-x="1222" d="M129 397h166q16 -100 53 -149q39 -51 106.5 -83t137.5 -32q127 0 214 89t87 218q0 88 -41 158t-111 100q-57 27 -176 33v148q123 6 183 39q57 33 89.5 93t32.5 132q0 113 -74.5 186.5t-189.5 73.5q-141 0 -211 -98q-29 -43 -49 -148h-168q23 139 72 223q109 178 356 179 q186 0 309 -117t123 -295q0 -231 -196 -340q104 -49 161.5 -147.5t57.5 -225.5q0 -199 -135 -329t-340 -130q-221 0 -357 152q-49 55 -70.5 114.5t-29.5 155.5z" />
<glyph unicode="4" horiz-adv-x="1372" d="M72 258l952 1364v-1214h188v-150h-188v-258h-164v258h-788zM362 408h498v708z" />
<glyph unicode="5" horiz-adv-x="1355" d="M160 248l137 98q53 -86 100 -123q106 -90 246 -90q162 0 271.5 112.5t109.5 276.5q0 162 -108.5 272.5t-268.5 110.5q-135 0 -297 -104l221 735h613v-160h-492l-100 -327q51 8 86 8q223 0 369.5 -151.5t146.5 -381.5q0 -236 -161 -392.5t-402 -156.5q-303 1 -471 273z " />
<glyph unicode="6" horiz-adv-x="1380" d="M160 494q0 176 127 354l524 727l127 -96l-352 -492q78 20 141 21q205 0 348.5 -147.5t143.5 -358.5q0 -217 -155 -372t-372 -155q-219 0 -375.5 153t-156.5 366zM330 495.5q0 -149.5 105.5 -256t254.5 -106.5q147 0 254 105.5t107 253.5q0 152 -105.5 258t-255 106 t-255 -105.5t-105.5 -255z" />
<glyph unicode="7" horiz-adv-x="1214" d="M51 53l871 1323h-838v160h1130l-1028 -1573z" />
<glyph unicode="8" horiz-adv-x="1251" d="M160 424q0 260 229 375q-188 115 -188 338q0 180 124 301t306 121q184 0 307 -121t123 -301q0 -102 -52.5 -194.5t-140.5 -143.5q104 -51 164 -148.5t60 -222.5q0 -195 -131.5 -324t-329.5 -129q-201 0 -336 128t-135 321zM330 432q0 -125 86 -212t211 -87q123 0 209 87 t86 208t-86 208t-211 87q-121 0 -208 -86t-87 -205zM362 1139q0 -113 78 -192t191 -79q109 0 187.5 78t78.5 189q0 113 -78 190.5t-190 77.5q-109 0 -188 -77.5t-79 -186.5z" />
<glyph unicode="9" horiz-adv-x="1382" d="M160 1036q0 217 154.5 370t373.5 153t376 -152t157 -365q0 -174 -129 -354l-523 -725l-129 96l355 492q-78 -20 -142 -21q-207 0 -350 147.5t-143 358.5zM330 1047q0 -152 105.5 -258.5t255 -106.5t255 105.5t105.5 255t-105.5 255t-255.5 105.5q-147 0 -253.5 -105.5 t-106.5 -250.5z" />
<glyph unicode=":" horiz-adv-x="595" d="M184 90q0 47 33 81t80 34t81 -34t34 -81q0 -45 -34 -79t-79 -34q-47 0 -81 33t-34 80zM184 864q0 47 34 81t81 34q45 0 79 -33t34 -80t-33 -79.5t-80 -32.5t-81 32.5t-34 77.5z" />
<glyph unicode=";" horiz-adv-x="411" d="M184 864q0 47 34 81t81 34q45 0 79 -33t34 -80t-34 -79.5t-81 -32.5t-80 32.5t-33 77.5zM203 223h186l-31 -573h-125z" />
<glyph unicode="&#x3c;" horiz-adv-x="1650" d="M100 768l1405 -819v1638zM414 768l929 543v-1086z" />
<glyph unicode="=" horiz-adv-x="2207" d="M496 553v164h1216v-164h-1216zM496 881v163h1216v-163h-1216z" />
<glyph unicode="&#x3e;" horiz-adv-x="1650" d="M145 -49l1405 819l-1405 819v-1638zM307 227v1086l930 -543z" />
<glyph unicode="?" horiz-adv-x="905" d="M76 1204q0 152 104.5 251t265.5 99q158 0 262.5 -104t104.5 -260q0 -90 -40 -169t-105 -124q-31 -23 -113 -51q-6 0 -14 -4l-15 -4v-332h-166v448q76 4 116 17.5t89 52.5q4 2 8.5 5t6.5 5q66 59 65 154q0 92 -57.5 150.5t-147.5 58.5q-88 0 -145 -56.5t-57 -142.5 q0 -29 14 -94h-166q-10 59 -10 100zM332 92q0 47 32.5 80t80 33t81 -33t33.5 -80t-32.5 -81t-80 -34t-81 34t-33.5 81z" />
<glyph unicode="@" horiz-adv-x="1859" d="M164 477q0 336 230.5 565.5t570.5 229.5q313 0 522 -196.5t209 -489.5q0 -225 -110.5 -389t-260.5 -164q-123 0 -166 135q-72 -78 -134 -108.5t-148 -30.5q-168 0 -278 118.5t-110 298.5q0 195 123 324t308 129q166 0 270 -131l14 111h150l-62 -523q-8 -78 -8 -104 q0 -74 62 -74q82 0 146 122t64 273q0 246 -166.5 403t-426.5 157q-274 0 -462 -188.5t-188 -465.5q0 -180 85 -331.5t233 -237.5q145 -86 364 -86q135 0 182.5 3t124 28.5t183.5 87.5l14 8l49 -137l-12 -4q-143 -70 -263 -98.5t-276 -28.5q-260 0 -448 108 q-180 104 -282.5 287.5t-102.5 398.5zM664 440q0 -109 64.5 -185.5t154.5 -76.5q111 0 193.5 98.5t82.5 229.5v14q0 100 -64.5 165t-162.5 65q-115 0 -191.5 -89.5t-76.5 -220.5z" />
<glyph unicode="A" horiz-adv-x="1429" d="M16 0l707 1610l690 -1610h-188l-181 434h-657l-184 -434h-187zM457 594h520l-256 616z" />
<glyph unicode="B" horiz-adv-x="1159" d="M162 0v1536h278q229 0 346 -96q66 -53 105 -139.5t39 -180.5q0 -135 -72 -225q-25 -35 -80 -74q135 -41 212 -143.5t77 -245.5q0 -199 -154 -328q-129 -104 -368 -104h-383zM334 160h194q109 0 164.5 14t104.5 53q100 78 100 211q0 70 -35 132.5t-94 95.5q-88 47 -262 47 h-172v-553zM334 858h129q150 0 217 60q82 72 82 200.5t-82 200.5q-66 57 -213 57h-133v-518z" />
<glyph unicode="C" horiz-adv-x="1441" d="M92 764q0 330 236.5 564.5t570.5 234.5q152 0 295 -64q76 -33 113 -57q29 -16 36 -26.5t7 -37.5v-135v-18q0 -16 -9 -17q-6 0 -16 11q-63 76 -191 129t-247 53q-256 0 -438.5 -188.5t-182.5 -450.5q0 -258 183.5 -443.5t439.5 -185.5q229 0 418 160l10 10l6 4 q12 10 18 10q8 0 9 -14v-10v-12v-146q0 -12 -6.5 -18t-38.5 -27q-182 -117 -418 -117q-326 0 -560.5 233.5t-234.5 557.5z" />
<glyph unicode="D" horiz-adv-x="1398" d="M162 0v1536h315q352 0 563 -178q266 -225 267 -591q0 -364 -273 -589q-115 -96 -243.5 -137t-315.5 -41h-313zM334 160h149q293 0 471.5 167t178.5 441q0 276 -177.5 442t-472.5 166h-149v-1216z" />
<glyph unicode="E" horiz-adv-x="1048" d="M162 0v1536h794v-160h-622v-456h606v-160h-606v-600h622v-160h-794z" />
<glyph unicode="F" horiz-adv-x="937" d="M162 0v1536h698v-160h-526v-456h510v-160h-510v-760h-172z" />
<glyph unicode="G" horiz-adv-x="1697" d="M92 760q0 334 235.5 564t577.5 230q164 0 307 -65q90 -41 156 -95.5t172 -172.5l-129 -115q-80 100 -133 147t-125 82q-115 57 -250 58q-268 0 -453.5 -184.5t-185.5 -450.5q0 -256 182.5 -442.5t434.5 -186.5q143 0 275 71.5t202 188.5q31 49 43 90q16 47 20 127h-456 v160h641v-41q0 -166 -33 -276.5t-111 -206.5q-106 -131 -259.5 -203t-323.5 -72q-324 0 -555.5 233.5t-231.5 559.5z" />
<glyph unicode="H" horiz-adv-x="1452" d="M162 0v1536h172v-625h784v625h172v-1536h-172v752h-784v-752h-172z" />
<glyph unicode="I" horiz-adv-x="495" d="M162 0v1536h172v-1536h-172z" />
<glyph unicode="J" horiz-adv-x="778" d="M0 -45l96 133q55 -51 92 -68.5t86 -17.5q63 0 105 39q65 62 65 248v6v1241h172v-1241q0 -195 -55 -293q-41 -74 -117.5 -118t-164.5 -44q-136 0 -279 115z" />
<glyph unicode="K" horiz-adv-x="1255" d="M162 0v1536h172v-659l653 659h232l-721 -717l743 -819h-235l-629 705l-43 -43v-662h-172z" />
<glyph unicode="L" horiz-adv-x="798" d="M162 0v1536h172v-1376h422v-160h-594z" />
<glyph unicode="M" horiz-adv-x="1869" d="M92 0l254 1624l590 -1298l604 1298l238 -1624h-176l-144 1069l-524 -1132l-516 1132l-150 -1069h-176z" />
<glyph unicode="N" horiz-adv-x="1691" d="M162 0v1599l1196 -1253v1190h172v-1606l-1196 1254v-1184h-172z" />
<glyph unicode="O" horiz-adv-x="1783" d="M92 752q0 336 232.5 573.5t562.5 237.5q332 0 568.5 -234.5t236.5 -562.5q0 -326 -235.5 -559.5t-565.5 -233.5q-326 0 -562.5 231t-236.5 548zM266 774q0 -266 181.5 -453.5t439.5 -187.5q262 0 446.5 185.5t184.5 447.5q0 264 -182.5 449.5t-442.5 185.5 q-258 0 -442.5 -184.5t-184.5 -442.5z" />
<glyph unicode="P" horiz-adv-x="1019" d="M162 0v1536h278q143 0 230.5 -24.5t156.5 -84.5q141 -119 142 -323q0 -201 -130 -315.5t-356 -114.5h-149v-674h-172zM334 829h139q156 0 242 72t86 205q0 270 -340 270h-127v-547z" />
<glyph unicode="Q" horiz-adv-x="1779" d="M92 766q0 330 234.5 563.5t564.5 233.5q332 0 564.5 -238t232.5 -573q0 -145 -45 -263q-27 -70 -63 -125t-112 -145l127 -121l-116 -112l-129 137q-123 -82 -228 -113q-117 -37 -235 -37q-330 0 -562.5 231.5t-232.5 561.5zM264 766q0 -266 180.5 -448.5t442.5 -182.5 q102 0 186 29q66 20 158 80l-191 190l117 117l191 -209q90 104 129 199q39 100 39 217q0 272 -180.5 457.5t-446.5 185.5q-262 0 -443.5 -184.5t-181.5 -450.5z" />
<glyph unicode="R" horiz-adv-x="1056" d="M162 0v1536h248q246 0 368 -84q80 -53 125 -145.5t45 -200.5q0 -176 -106.5 -290t-280.5 -128l490 -688h-211l-463 674h-43v-674h-172zM334 825h106q162 0 250 73t88 208q0 150 -110 221q-78 49 -232 49h-102v-551z" />
<glyph unicode="S" horiz-adv-x="1146" d="M92 369l166 47q23 -104 64 -158q88 -125 249 -125q129 0 219.5 88t90.5 215q0 96 -57.5 159.5t-202.5 129.5l-140 63q-166 76 -238.5 164t-72.5 213q0 170 123 284t309 114q258 0 395 -240l-135 -90q-43 68 -80 102q-76 66 -184.5 66t-181 -67.5t-72.5 -168.5 q0 -74 50 -128t167 -105l146 -64q186 -82 267 -180t81 -244q0 -199 -141.5 -335t-348.5 -136q-182 0 -305 104t-168 292z" />
<glyph unicode="T" horiz-adv-x="946" d="M16 1376v160h916v-160h-373v-1376h-172v1376h-371z" />
<glyph unicode="U" horiz-adv-x="1415" d="M162 549v987h172v-942q0 -123 10 -184.5t41 -110.5q45 -72 135 -119t188.5 -47t188.5 47t135 119q31 51 41 111.5t10 183.5v942h172v-987q0 -236 -100 -365q-76 -98 -194.5 -154.5t-252 -56.5t-252 56.5t-194.5 154.5q-55 70 -77.5 153t-22.5 212z" />
<glyph unicode="V" horiz-adv-x="1275" d="M16 1536h187l436 -1171l436 1171h187l-625 -1628z" />
<glyph unicode="W" horiz-adv-x="2201" d="M16 1536h187l409 -1151l482 1229l454 -1231l451 1153h186l-643 -1616l-452 1229l-484 -1229z" />
<glyph unicode="X" horiz-adv-x="1110" d="M16 0l453 795l-414 741h195l317 -578l326 578h197l-424 -741l444 -795h-190l-355 631l-356 -631h-193z" />
<glyph unicode="Y" horiz-adv-x="1185" d="M0 1536h199l391 -686l397 686h199l-512 -874v-662h-172v662z" />
<glyph unicode="Z" horiz-adv-x="1183" d="M31 0l837 1376h-729v160h1014l-838 -1376h818v-160h-1102z" />
<glyph unicode="[" horiz-adv-x="663" d="M184 -406v2087h387v-155h-217v-1776h217v-156h-387z" />
<glyph unicode="\" horiz-adv-x="1046" d="M-135 1769h149l977 -1978h-162z" />
<glyph unicode="]" horiz-adv-x="663" d="M92 -250h219v1776h-219v155h387v-2087h-387v156z" />
<glyph unicode="^" horiz-adv-x="1067" d="M14 838l406 702h227l406 -702h-187l-334 565l-331 -565h-187z" />
<glyph unicode="_" horiz-adv-x="698" d="M164 776v131h371v-131h-371z" />
<glyph unicode="`" horiz-adv-x="653" d="M219 1458l170 76l244 -334l-103 -55z" />
<glyph unicode="a" horiz-adv-x="1165" d="M84 475q0 213 130 351.5t329 138.5q197 0 334 -156v133h163v-942h-163v131q-135 -158 -332 -158q-201 0 -331 142.5t-130 359.5zM252 477q0 -156 89 -257t226 -101q141 0 230.5 98t89.5 256q0 154 -89 250t-231 96q-133 0 -224 -98.5t-91 -243.5z" />
<glyph unicode="b" horiz-adv-x="1165" d="M125 0v1536h166v-727q137 156 334 156q199 0 327.5 -139.5t128.5 -352.5q0 -217 -130 -358.5t-330 -141.5q-199 0 -330 158v-131h-166zM279 471q0 -156 90 -254t229 -98q135 0 225 99t90 249q0 152 -88 251t-223 99q-143 0 -233 -96t-90 -250z" />
<glyph unicode="c" horiz-adv-x="980" d="M84 467q0 209 147.5 353.5t362.5 144.5q70 0 137 -19q80 -20 160 -72v-212q-37 39 -68 67q-98 88 -233 88q-143 0 -240.5 -100.5t-97.5 -247.5q0 -150 96 -250t240 -100q76 0 143 31q78 33 166 135v-213q-149 -98 -305 -99q-215 0 -361.5 142.5t-146.5 351.5z" />
<glyph unicode="d" horiz-adv-x="1165" d="M84 473q0 213 129 352.5t328 139.5q195 0 336 -156v727h163v-1536h-163v131q-131 -158 -332 -158t-331 141.5t-130 358.5zM252 477q0 -158 89 -258t226 -100q141 0 230.5 98t89.5 256q0 152 -89 248t-231 96q-133 0 -224 -98.5t-91 -241.5z" />
<glyph unicode="e" horiz-adv-x="1087" d="M84 467q0 219 129 358.5t334 139.5t331 -136.5t126 -359.5v-33h-746q6 -143 89 -230t214 -87q121 0 205 78q41 41 90 118l137 -75q-55 -98 -116 -150q-133 -117 -322 -117q-209 0 -340 137.5t-131 356.5zM268 573h563q-23 111 -99.5 177.5t-181 66.5t-184.5 -69t-98 -175 z" />
<glyph unicode="f" horiz-adv-x="530" d="M25 793v149h92v256q0 115 24 182q27 72 96.5 114t161.5 42q55 0 121 -20v-162q-60 22 -106 22h-4q-51 0 -84 -26q-27 -23 -36 -61t-9 -128v-219h239v-149h-239v-793h-164v793h-92z" />
<glyph unicode="g" horiz-adv-x="1167" d="M84 467q0 215 131 356.5t332 141.5q199 0 330 -156v133h165v-938q0 -143 -20.5 -222t-73.5 -149q-135 -176 -381 -176q-207 0 -331.5 118t-133.5 316h162q10 -109 45 -159q39 -59 108.5 -93t151.5 -34q307 0 308 372v154q-139 -158 -338 -158q-195 0 -325 141.5 t-130 352.5zM252 471q0 -156 87 -253t224 -97q143 0 232.5 98t89.5 254q0 152 -90 249t-230 97q-135 0 -224 -99t-89 -249z" />
<glyph unicode="h" horiz-adv-x="1017" d="M125 0v1536h166v-705q111 133 272 134q86 0 160 -35t115 -94q55 -80 55 -252v-584h-164v573q0 115 -31 166q-45 78 -166 78q-150 0 -204 -110q-37 -72 -37 -236v-471h-166z" />
<glyph unicode="i" horiz-adv-x="440" d="M102 1296q0 49 35 83t84 34q47 0 82 -33.5t35 -81.5q0 -49 -35 -82.5t-84 -33.5q-47 0 -82 33.5t-35 80.5zM137 0v942h166v-942h-166z" />
<glyph unicode="j" horiz-adv-x="440" d="M102 1296q0 49 35 83t84 34q47 0 82 -33.5t35 -81.5q0 -49 -35 -82.5t-84 -33.5q-47 0 -82 33.5t-35 80.5zM137 -530v1472h166v-1472h-166z" />
<glyph unicode="k" horiz-adv-x="935" d="M125 0v1536h166v-940l346 346h219l-410 -401l486 -541h-215l-385 428l-41 -41v-387h-166z" />
<glyph unicode="l" horiz-adv-x="415" d="M125 0v1536h166v-1536h-166z" />
<glyph unicode="m" horiz-adv-x="1503" d="M125 0v942h166v-100q94 123 235 123q180 0 262 -152q90 152 281 152q176 0 258 -127q51 -82 51 -240v-598h-164v571q0 131 -39.5 189.5t-132.5 58.5q-205 0 -204 -297v-522h-164v559q0 260 -176 260q-53 0 -101.5 -28.5t-70.5 -73.5q-35 -68 -35 -205v-512h-166z" />
<glyph unicode="n" horiz-adv-x="1017" d="M125 0v942h166v-115q61 76 122.5 107t151.5 31q86 0 160 -35t113 -94q55 -82 55 -252v-584h-166v557q0 133 -31 184q-49 78 -168 78q-125 0 -181 -83t-56 -265v-471h-166z" />
<glyph unicode="o" horiz-adv-x="1179" d="M84 461q0 213 145.5 358.5t356.5 145.5q217 0 363.5 -143.5t146.5 -352.5t-146.5 -352.5t-359.5 -143.5q-209 0 -357.5 142.5t-148.5 345.5zM252 473q0 -154 94 -254t240 -100q150 0 246 98t96 252q0 152 -95.5 250t-244.5 98q-143 0 -239.5 -98.5t-96.5 -245.5z" />
<glyph unicode="p" horiz-adv-x="1165" d="M125 -539v1481h166l-2 -133q137 156 332 156q201 0 330.5 -141.5t129.5 -358.5q0 -213 -129 -352.5t-327.5 -139.5t-333.5 158v-670h-166zM279 465q0 -150 91 -248t230 -98q133 0 223 98t90 244q0 156 -88 257t-225 101q-139 0 -230 -99t-91 -255z" />
<glyph unicode="q" horiz-adv-x="1165" d="M84 465q0 217 130 358.5t330.5 141.5t332.5 -156v133h163v-1481h-163v670q-137 -158 -336 -158q-197 0 -327 139.5t-130 352.5zM252 471q0 -152 88 -252t223 -100q143 0 233.5 96t90.5 252q0 154 -89 253t-229 99q-137 0 -227 -99t-90 -249z" />
<glyph unicode="r" horiz-adv-x="692" d="M125 0v942h166v-100q45 55 76 78q53 45 139 45q74 0 147 -39l-78 -148q-51 33 -96 33q-43 0 -84 -20q-59 -33 -81.5 -96.5t-22.5 -198.5v-496h-166z" />
<glyph unicode="s" horiz-adv-x="784" d="M61 213l144 59q31 -57 49 -84q52 -69 140 -69h3q70 0 115 42t45 107q0 29 -14 62q-16 29 -44 48t-98 48q-125 51 -192 98q-84 59 -84 176q0 113 80 189t198 76q70 0 136 -35q45 -23 70.5 -50.5t56.5 -86.5l-138 -70q-47 94 -131 94q-47 0 -81.5 -30.5t-34.5 -73.5 q0 -41 31.5 -69t123.5 -66q133 -53 182 -91q104 -74 105 -206q0 -131 -93 -219.5t-233 -88.5q-152 0 -252 101q-49 49 -84 139z" />
<glyph unicode="t" horiz-adv-x="491" d="M47 793v149h100v340h164v-340h170v-149h-170v-793h-164v793h-100z" />
<glyph unicode="u" horiz-adv-x="1011" d="M125 375v567h166v-549q0 -121 28 -176q25 -45 75 -71.5t112 -26.5q131 0 184 98q31 57 31 176v549h164v-567q0 -106 -18.5 -170t-67.5 -115q-104 -117 -293 -117q-186 0 -293 117q-49 53 -68.5 116t-19.5 169z" />
<glyph unicode="v" horiz-adv-x="937" d="M0 942h184l287 -633l283 633h184l-469 -1003z" />
<glyph unicode="w" horiz-adv-x="1536" d="M0 942h184l285 -637l297 711l299 -711l287 637h184l-475 -1008l-295 703l-297 -703z" />
<glyph unicode="x" horiz-adv-x="1009" d="M0 0l410 502l-351 440h201l250 -321l250 321h203l-351 -440l398 -502h-197l-303 383l-305 -383h-205z" />
<glyph unicode="y" horiz-adv-x="1021" d="M0 942h190l336 -674l312 674h184l-709 -1481h-184l311 629z" />
<glyph unicode="z" horiz-adv-x="1112" d="M47 0l690 793h-563v149h891l-688 -792h659v-150h-989z" />
<glyph unicode="{" horiz-adv-x="759" d="M184 573v138q72 18 102.5 65t30.5 137v451q0 170 68 243.5t223 73.5q4 0 22.5 -1t37.5 -1v-145l-19 2q-102 0 -133 -38t-31 -163v-432q0 -78 -20 -145q-25 -74 -121 -121q70 -39 100 -90q41 -63 41 -182v-418v-45q0 -14 2 -35t2 -25q8 -51 37 -75q25 -18 54 -23 q16 -4 67 -4h21v-146l-62 1q-156 0 -222.5 77.5t-66.5 261.5v424q0 98 -29.5 147.5t-103.5 67.5z" />
<glyph unicode="|" horiz-adv-x="415" d="M125 0v1536h166v-1536h-166z" />
<glyph unicode="}" horiz-adv-x="759" d="M92 -260h14q57 0 74 4q37 6 56 27q41 39 40 170v430q0 78 21 145q14 41 38.5 67.5t80.5 55.5q-72 39 -101 90q-39 63 -39 182v416q0 4 -1 18.5t-1 26.5q0 10 -1 24.5t-2 21.5t-1 14q-6 47 -34 75q-20 16 -56 25q-29 4 -69 4h-19v143q37 2 62 2q158 0 223 -77.5t65 -262.5 v-426q0 -98 31 -146t102 -69v-135q-72 -18 -102.5 -66t-30.5 -139v-450q0 -168 -67.5 -242t-222.5 -74q-27 0 -60 3v143z" />
<glyph unicode="~" horiz-adv-x="1521" d="M207 1405q39 74 49 90q104 176 268 176q86 0 256 -78q80 -37 113 -49q57 -23 111 -22q66 0 111.5 32.5t96.5 120.5l103 -59q-39 -82 -80 -131q-102 -129 -252 -129q-82 0 -192 51l-129 59q-88 41 -149.5 41t-109 -37.5t-96.5 -128.5z" />
<glyph unicode="&#xa0;" />
<glyph unicode="&#xa1;" horiz-adv-x="1804" d="M102 782l813 813l316 -321l-328 -273h799v-462h-799l328 -269l-316 -319z" />
<glyph unicode="&#xa2;" horiz-adv-x="8138" d="M164 740q0 354 220 587q222 236 560 236q236 0 430 -121q96 -57 96 -94v-5l-16 -135q0 -18 -8 -18q-10 0 -23 16q-80 90 -209 143.5t-268 53.5q-262 0 -434 -190.5t-172 -483.5q0 -281 156.5 -439.5t431.5 -158.5q127 0 225 37q109 41 154 86q18 18 30 18q10 0 11 -16 l-19 -150q0 -18 -6 -24q-8 -12 -86 -45q-166 -66 -326 -66q-340 0 -543.5 208t-203.5 561zM1397 14q0 6 2 9l821 1564q6 18 14 19q10 0 15 -15l456 -1562q2 -4 2 -13q0 -16 -22 -16h-123q-23 0 -31 25l-110 403h-625l-209 -408q-14 -20 -37 -20h-137q-16 0 -16 14zM1878 586 h494l-174 628zM2857 20v3l188 1531q4 23 17 23q6 0 14 -4l942 -1233l144 1167q2 18 8 23.5t22 5.5h119q23 0 23 -18l-2 -2l-187 -1536q-4 -31 -14 -31q-8 0 -21 16l-940 1225l-145 -1155q-4 -35 -31 -35h-117q-20 0 -20 20zM4303 14q0 2 1 4t1 5l821 1564q10 18 14 19 q10 0 15 -15l457 -1562q2 -4 2 -13q0 -16 -23 -16h-123q-23 0 -29 25l-112 403h-625l-209 -408q-12 -20 -37 -20h-135q-18 0 -18 14zM4784 586h498l-174 628zM5775 23v4l183 1480q4 29 30 29h113q20 0 20 -20v-5l-161 -1353h444q23 0 23 -21v-2l-17 -108q-2 -27 -30 -27 h-584q-21 0 -21 23zM6416 739v123q0 18 21 19h657q20 0 21 20v639q0 18 22 19h121q20 0 21 -19v-633q0 -27 28 -26h647q20 0 21 -19v-129q0 -16 -16 -16h-660q-20 0 -20 -19v-680q0 -18 -17 -18h-131q-16 0 -16 18v678q0 20 -21 21h-663q-15 -1 -15 22z" />
<glyph unicode="&#xa3;" horiz-adv-x="1325" d="M47 59q47 72 88 109q90 82 209 88q66 102 66 193q0 43 -15 96h-258v131h201l-10 20l-56 111q-68 135 -84 186t-16 133q0 182 131 307.5t324 125.5q195 0 315.5 -124t128.5 -333l-168 -45q-6 98 -26 164q-27 80 -93.5 126t-154.5 46q-121 0 -202 -79t-81 -198 q0 -72 31 -143q37 -84 92 -187q25 -43 45 -84q6 -12 12 -26h289v-131h-244q14 -47 15 -90q0 -98 -68 -222l29 -10l54 -17q36 -11 52 -18q133 -45 172 -45q35 0 64 15q57 29 121 137l139 -82q-43 -84 -88 -133q-98 -104 -230 -105q-90 0 -253 60q-162 57 -216 57 q-66 0 -118 -43q-29 -27 -64 -78z" />
<glyph unicode="&#xa5;" horiz-adv-x="1652" d="M145 539v166h158q-2 30 -2 61q0 52 6 106h-162v168h205q82 238 298 384.5t470 146.5q209 0 434 -146l-22 -186q-186 168 -432 168q-176 0 -333 -102.5t-226 -264.5h966l-20 -168h-1000q-7 -39 -7 -108q0 -28 1 -59h985l-20 -166h-926q61 -180 227 -295t357 -115 q145 0 301 78l-23 -191q-147 -47 -278 -47q-268 0 -474 157t-294 413h-189z" />
<glyph unicode="&#xa6;" />
<glyph unicode="&#xa7;" horiz-adv-x="1349" d="M197 641q0 258 231 363q-72 41 -104 75q-90 90 -91 236q0 162 117 272.5t289 110.5q78 0 155.5 -31t125.5 -80q102 -102 110 -323h-162q-2 82 -18 129q-23 70 -78 108.5t-133 38.5q-106 0 -172 -65.5t-66 -171.5q0 -104 78 -162q39 -29 99 -54q25 -10 104 -36 q164 -57 236 -117q121 -100 120 -291q0 -150 -92 -254q-41 -49 -139 -106q74 -43 108 -78q84 -88 84 -242q0 -174 -110.5 -279.5t-290.5 -105.5q-186 0 -293 111q-94 96 -102 317h166q4 -86 20 -131q20 -63 76.5 -100t136.5 -37q109 0 169 61.5t60 169.5q0 88 -46 142.5 t-156 97.5l-103 41q-156 61 -215 117q-114 102 -114 274zM369 647q0 -106 71.5 -180t176 -74t177 74t72.5 178.5t-72.5 178t-177.5 73.5q-102 0 -174.5 -74t-72.5 -176z" />
<glyph unicode="&#xa8;" horiz-adv-x="1040" d="M115 1266q0 49 33.5 82.5t82.5 33.5q47 0 82 -33.5t35 -80.5t-34.5 -81t-82 -34t-82 34t-34.5 79zM516 1266q0 49 34 82.5t83 33.5q47 0 81 -33.5t34 -80.5t-34 -81t-81 -34t-82 34t-35 79z" />
<glyph unicode="&#xa9;" horiz-adv-x="1751" d="M78 768q0 324 230.5 559.5t549.5 235.5q336 0 571.5 -230.5t235.5 -558.5q0 -334 -231.5 -567.5t-563.5 -233.5q-328 0 -559 232.5t-233 562.5zM207 774q0 -281 193.5 -476.5t470 -195.5t471 196t194.5 470q0 272 -193.5 469t-461.5 197q-281 0 -477.5 -193t-196.5 -467z M426 760q0 193 140.5 333t334.5 140q72 0 135 -21q59 -18 89 -34.5t92 -67.5l8 -8v-197l-41 49q-37 43 -58 62q-94 88 -225 88q-137 0 -239.5 -104.5t-102.5 -243.5q0 -137 102.5 -239.5t241.5 -102.5q59 0 129 28q51 23 80 44.5t72 70.5l41 47v-194l-8 -7 q-156 -117 -312 -116q-197 0 -338 139t-141 334z" />
<glyph unicode="&#xaa;" horiz-adv-x="1804" d="M102 539v462h799l-326 273l314 321l813 -813l-813 -831l-314 319l326 269h-799z" />
<glyph unicode="&#xab;" horiz-adv-x="1130" d="M72 492l342 432l108 -84l-274 -348l274 -338l-108 -86zM414 492l344 432l106 -84l-274 -348l274 -338l-106 -86z" />
<glyph unicode="&#xac;" horiz-adv-x="1153" d="M78 453v161h997v-614h-172v453h-825z" />
<glyph unicode="&#xad;" horiz-adv-x="370" d="M0 371v131h371v-131h-371z" />
<glyph unicode="&#xae;" horiz-adv-x="1751" d="M78 768q0 324 230.5 559.5t549.5 235.5q336 0 571.5 -230.5t235.5 -558.5q0 -334 -231.5 -567.5t-563.5 -233.5q-328 0 -559 232.5t-233 562.5zM207 774q0 -281 193.5 -476.5t470 -195.5t471 196t194.5 470q0 272 -193.5 469t-461.5 197q-281 0 -477.5 -193t-196.5 -467z M670 299v922h157q147 0 225 -68t78 -195q0 -104 -55 -169.5t-155 -81.5l280 -408h-162l-235 348l-2 -348h-131zM801 825h43q154 0 153 136q0 133 -166 133h-30v-269z" />
<glyph unicode="&#xaf;" horiz-adv-x="1077" d="M119 1184v137h696v-137h-696z" />
<glyph unicode="&#xb0;" horiz-adv-x="1382" d="M385 1251q0 127 89 217.5t214 90.5q131 0 221 -89.5t90 -218.5q0 -127 -90 -217t-217 -90t-217 90t-90 217zM508 1251q0 -76 54 -130t130 -54t130.5 54.5t54.5 130t-54.5 130t-128.5 54.5q-78 0 -132 -53.5t-54 -131.5z" />
<glyph unicode="&#xb1;" />
<glyph unicode="&#xb2;" />
<glyph unicode="&#xb3;" />
<glyph unicode="&#xb4;" horiz-adv-x="897" d="M406 1200l241 334l172 -76l-311 -313z" />
<glyph unicode="&#xb5;" horiz-adv-x="1849" d="M102 786l832 813l813 -813l-322 -313l-272 326v-799h-463v799l-268 -326z" />
<glyph unicode="&#xb6;" horiz-adv-x="1318" d="M-10 1139q0 172 102 284q106 113 342 113h662l-78 -133h-100v-1630h-148v1630h-240v-1630h-147v983h-33q-160 0 -260 106.5t-100 276.5z" />
<glyph unicode="&#xb7;" horiz-adv-x="10323" d="M164 -516v2513h9996v-2513h-9996zM604 735q0 -358 230.5 -580.5t603.5 -222.5q207 0 325 72q23 12 29 59l41 283q2 18 2 31q0 18 -6 18t-19 -6q-8 -4 -45 -16q-180 -51 -288 -51q-180 0 -297 120.5t-117 307.5q0 201 133 327.5t346 126.5q201 0 352 -94q43 -29 56 -29 q10 0 13 7.5t9 37.5l51 256q6 31 7 37q0 18 -19 31q-215 139 -520 139q-385 0 -636 -241.5t-251 -612.5zM1917 14q0 -14 16 -14h398q37 0 49 25l102 211q12 25 41 24h500q29 0 33 -27l53 -213q6 -20 29 -20h354q18 0 18 18v9l-305 1476q-8 33 -35 33h-473q-33 0 -47 -29 l-729 -1474q-4 -13 -4 -19zM2644 610l4 13l199 450q8 14 10 14q6 0 10 -20l105 -436q4 -16 4 -19q0 -8 -21 -8h-297q-14 0 -14 6zM3705 20q0 -14 6 -17t29 -3h342q31 0 32 29l123 876q4 27 6.5 27t16.5 -21l502 -882q16 -29 49 -29h350q37 0 39 25l205 1482v6q0 23 -27 23 h-362q-23 0 -30 -6t-11 -25l-111 -794q-4 -31 -10 -31t-19 22l-458 805q-10 20 -18.5 24.5t-31.5 4.5h-389q-31 0 -32 -27l-201 -1480v-9zM5378 10q0 -10 16 -10h394q33 0 43 23l110 215q10 23 43 22h473q25 0 32 -5t11 -28l39 -198q6 -29 39 -29h350q25 0 25 12q0 14 -2 21 l-309 1472q-4 20 -10.5 25.5t-26.5 5.5h-451q-33 0 -45 -27l-725 -1480q-6 -13 -6 -19zM6095 616q0 6 4 19l201 452q8 18 12 18.5t8 -18.5l98 -448q0 -4 1 -10t1 -11q0 -14 -22 -14h-277q-26 0 -26 12zM7123 16q0 -16 18 -16h861q29 0 30 25l41 292v9q0 20 -20 20h-412 q-25 0 -24 23v4l153 1136v9q0 18 -20 18h-387q-20 0 -27 -33l-213 -1476v-11zM8088 633q0 -27 24 -27h545q27 0 27 -31v-550q0 -25 22 -25h420q23 0 22 29v551q0 16 5.5 21t21.5 5h508q23 0 22 25v418q0 27 -22 26h-514q-20 0 -21 29v473q0 20 -26 20h-418q-20 0 -20 -20 v-473q0 -29 -25 -29h-549q-23 0 -22 -22v-420z" />
<glyph unicode="&#xb8;" horiz-adv-x="1077" d="M428 -420l195 301l151 -61l-231 -297z" />
<glyph unicode="&#xb9;" />
<glyph unicode="&#xba;" horiz-adv-x="1857" d="M106 813l322 315l272 -327v798h463v-798l269 327l319 -315l-831 -813z" />
<glyph unicode="&#xbb;" horiz-adv-x="1130" d="M47 154l272 338l-272 348l107 84l344 -432l-344 -424zM389 154l275 338l-275 348l107 84l344 -432l-344 -424z" />
<glyph unicode="&#xbc;" />
<glyph unicode="&#xbd;" />
<glyph unicode="&#xbe;" />
<glyph unicode="&#xbf;" horiz-adv-x="1157" d="M37 -20q0 90 40 170.5t103 121.5q41 27 103 47l39 13v274h165v-393q-76 -2 -116.5 -15.5t-87.5 -54.5q-2 -2 -7 -4l-4 -4l-2 -2q-68 -68 -67 -153q0 -90 58 -148.5t149 -58.5q86 0 143 56t57 140q0 27 -14 97h166l4 -31q4 -25 4 -78q0 -145 -105.5 -243.5t-263.5 -98.5 q-156 0 -260 104.5t-104 260.5zM289 1077q0 47 33.5 81t81 34t80 -34t32.5 -83q0 -45 -32.5 -78.5t-77.5 -33.5q-49 0 -83 33.5t-34 80.5z" />
<glyph unicode="&#xc0;" horiz-adv-x="1425" d="M16 4h187l184 432h655l181 -432h186l-463 1081h72l-221 517h-183l52 -121zM457 596l262 614l256 -614h-518z" />
<glyph unicode="&#xc1;" horiz-adv-x="1429" d="M16 0l707 1610l690 -1610h-188l-181 434h-657l-184 -434h-187zM457 594h520l-256 616zM627 1735l291 297l161 -103l-354 -268z" />
<glyph unicode="&#xc2;" horiz-adv-x="1427" d="M16 2l476 1083h-37l217 514h100l209 -514h-35l465 -1083h-188l-181 434h-655l-184 -434h-187zM457 594h518l-256 616z" />
<glyph unicode="&#xc3;" horiz-adv-x="1429" d="M16 0l707 1610l690 -1610h-188l-181 434h-657l-184 -434h-187zM356 1774q43 70 68 98q55 66 145 65q66 0 162 -47t131 -47q59 0 111 99l100 -82q-74 -166 -219 -166q-51 0 -158 47q-98 45 -139 45q-55 0 -98 -96zM457 594h520l-256 616z" />
<glyph unicode="&#xc4;" horiz-adv-x="1429" d="M16 0l707 1610l690 -1610h-188l-181 434h-657l-184 -434h-187zM393 1806q0 49 34 84t83 35t84 -35t35 -82q0 -49 -35 -83.5t-84 -34.5q-47 0 -82 34.5t-35 81.5zM457 594h520l-256 616zM831 1806q0 49 34 84t83 35t83 -35t34 -82q0 -49 -34 -83.5t-83 -34.5 q-47 0 -82 34.5t-35 81.5z" />
<glyph unicode="&#xc5;" horiz-adv-x="1429" d="M16 0l707 1610l690 -1610h-188l-181 434h-657l-184 -434h-187zM457 594h520l-256 616zM524 1884q0 84 58.5 143.5t142.5 59.5q82 0 141.5 -58.5t59.5 -142.5t-59.5 -142t-141.5 -58t-141.5 58t-59.5 140zM629 1888q0 -41 27.5 -69.5t68.5 -28.5t68.5 28.5t27.5 67.5 t-27.5 67.5t-68.5 28.5q-39 0 -67.5 -27.5t-28.5 -66.5z" />
<glyph unicode="&#xc6;" horiz-adv-x="2039" d="M16 0l682 1536h674l68 -160h-619l191 -458h606l68 -160h-605l248 -598h625l69 -160h-802l-181 430h-653l-184 -430h-187zM461 588h512l-256 606z" />
<glyph unicode="&#xc7;" horiz-adv-x="1423" d="M14 764q0 330 236.5 564.5t570.5 234.5q152 0 293 -64q74 -31 115 -57q29 -16 36 -26.5t7 -37.5v-135v-18q0 -16 -10 -17q-4 0 -15 11q-66 76 -192.5 129t-245.5 53q-256 0 -438.5 -188.5t-182.5 -450.5q0 -258 183.5 -443.5t439.5 -185.5q162 0 322 92q35 20 77 51 q16 16 19 17q16 10 18 12l6 10q2 2 9 2q10 0 10 -14v-10v-12v-146q0 -12 -10 -20l-64 -41q-164 -88 -319 -99v-122h-197v137q-274 31 -471 258t-197 516z" />
<glyph unicode="&#xc8;" horiz-adv-x="1048" d="M162 0v1536h133l-23 63h527l24 -63h133v-160h-622v-456h606v-160h-606v-600h622v-160h-794z" />
<glyph unicode="&#xc9;" horiz-adv-x="1048" d="M162 0v1536h133l22 63h529l-23 -63h133v-160h-622v-456h606v-160h-606v-600h622v-160h-794z" />
<glyph unicode="&#xca;" horiz-adv-x="1048" d="M162 0v1536h133l22 63h482l24 -63h133v-160h-622v-456h606v-160h-606v-600h622v-160h-794z" />
<glyph unicode="&#xcb;" horiz-adv-x="794" d="M-4 2h795v160h-623v600h606v160h-606v454h623v160h-127v63h-207v-63h-127v63h-207v-63h-127v-1534z" />
<glyph unicode="&#xcc;" horiz-adv-x="632" d="M-35 1929l162 103l291 -297l-101 -74zM227 0v1536h172v-1536h-172z" />
<glyph unicode="&#xcd;" horiz-adv-x="604" d="M154 0v1278h172v-1278h-172zM154 1364v172h172v-172h-172z" />
<glyph unicode="&#xce;" horiz-adv-x="313" d="M0 1468l51 129h209l53 -129h-313zM70 0h172v1405h-172v-1405z" />
<glyph unicode="&#xcf;" horiz-adv-x="321" d="M0 1473v126h129v-126h-129zM76 2h172v1405h-172v-1405zM193 1473v126h129v-126h-129z" />
<glyph unicode="&#xd0;" />
<glyph unicode="&#xd1;" horiz-adv-x="1765" d="M162 0v1599l1196 -1253v1190h172v-1606l-1196 1254v-1184h-172zM967 1536h231v-338z" />
<glyph unicode="&#xd2;" horiz-adv-x="1826" d="M92 752q0 336 232.5 573.5t562.5 237.5q332 0 568.5 -234.5t236.5 -562.5q0 -326 -235.5 -559.5t-565.5 -233.5q-326 0 -562.5 231t-236.5 548zM266 774q0 -266 181.5 -453.5t439.5 -187.5q262 0 446.5 185.5t184.5 447.5q0 264 -182.5 449.5t-442.5 185.5 q-258 0 -442.5 -184.5t-184.5 -442.5zM543 1929l162 103l290 -297l-98 -74z" />
<glyph unicode="&#xd3;" horiz-adv-x="1826" d="M92 752q0 336 232.5 573.5t562.5 237.5q332 0 568.5 -234.5t236.5 -562.5q0 -326 -235.5 -559.5t-565.5 -233.5q-326 0 -562.5 231t-236.5 548zM266 774q0 -266 181.5 -453.5t439.5 -187.5q262 0 446.5 185.5t184.5 447.5q0 264 -182.5 449.5t-442.5 185.5 q-258 0 -442.5 -184.5t-184.5 -442.5zM803 1735l291 297l161 -103l-352 -268z" />
<glyph unicode="&#xd4;" horiz-adv-x="1783" d="M98 752q0 221 111 411q106 182 289 291l30 78q168 88 324 88h78q168 0 344 -94l29 -78q178 -109 282 -285q109 -186 109 -397q0 -326 -236 -559q-236 -231 -563 -232q-326 0 -561.5 230t-235.5 547zM272 774q0 -266 180.5 -452.5t438.5 -186.5q264 0 444 184 q184 184 184.5 446.5t-182.5 448.5q-182 184 -440 184.5t-442 -184.5q-183 -182 -183 -440z" />
<glyph unicode="&#xd5;" horiz-adv-x="1826" d="M92 752q0 336 232.5 573.5t562.5 237.5q332 0 568.5 -234.5t236.5 -562.5q0 -326 -235.5 -559.5t-565.5 -233.5q-326 0 -562.5 231t-236.5 548zM266 774q0 -266 181.5 -453.5t439.5 -187.5q262 0 446.5 185.5t184.5 447.5q0 264 -182.5 449.5t-442.5 185.5 q-258 0 -442.5 -184.5t-184.5 -442.5zM535 1774q37 61 67 98q59 66 146 65q66 0 162 -47t130 -47q57 0 111 99l98 -82q-74 -166 -219 -166q-50 0 -156 47q-102 45 -139 45q-57 0 -100 -96z" />
<glyph unicode="&#xd6;" horiz-adv-x="1826" d="M92 752q0 336 232.5 573.5t562.5 237.5q332 0 568.5 -234.5t236.5 -562.5q0 -326 -235.5 -559.5t-565.5 -233.5q-326 0 -562.5 231t-236.5 548zM266 774q0 -266 181.5 -453.5t439.5 -187.5q262 0 446.5 185.5t184.5 447.5q0 264 -182.5 449.5t-442.5 185.5 q-258 0 -442.5 -184.5t-184.5 -442.5zM555 1806q0 49 35 84t84 35q47 0 82 -35t35 -82q0 -49 -35 -83.5t-82 -34.5q-49 0 -84 34.5t-35 81.5zM993 1806q0 49 34 84t83 35t84 -35t35 -82q0 -49 -35 -83.5t-84 -34.5q-47 0 -82 34.5t-35 81.5z" />
<glyph unicode="&#xd7;" />
<glyph unicode="&#xd8;" horiz-adv-x="1335" d="M150 0v1536h698v-160h-526v-456h509v-160h-509v-760h-172zM711 90q0 47 32.5 81t79.5 34q49 0 82 -33t33 -82q0 -47 -33 -80t-80 -33t-80.5 33t-33.5 80z" />
<glyph unicode="&#xd9;" horiz-adv-x="1415" d="M162 549v987h172v-942q0 -215 51 -297q45 -72 135 -119t188.5 -47t189.5 47t134 119q51 82 51 297v942h78v66h174v-517h-80v-536q0 -236 -100 -367q-76 -98 -194.5 -154.5t-251.5 -56.5q-131 0 -251 56.5t-196 154.5q-100 131 -100 367z" />
<glyph unicode="&#xda;" horiz-adv-x="1415" d="M162 549v987h172v-942q0 -123 10 -184.5t41 -110.5q45 -72 135 -119t188.5 -47t188.5 47t135 119q31 51 41 111.5t10 183.5v942h172v-987q0 -236 -100 -365q-76 -98 -194.5 -154.5t-252 -56.5t-252 56.5t-194.5 154.5q-55 70 -77.5 153t-22.5 212zM621 1735l290 297 l162 -103l-352 -268z" />
<glyph unicode="&#xdb;" horiz-adv-x="1415" d="M162 557v858h172v-813q0 -215 51 -297q45 -72 136 -119t188 -47q98 0 189 47t136 119q51 82 51 297v813h172v-858q0 -236 -100 -367q-76 -98 -195.5 -154t-252.5 -56q-131 0 -251 56t-196 154q-100 131 -100 367zM385 1481h651l-53 129h-563z" />
<glyph unicode="&#xdc;" horiz-adv-x="1415" d="M166 557v860h172v-815q0 -215 51 -297q45 -72 135 -119t188.5 -47t189.5 47t134 119q53 84 54 297v815h172v-860q0 -236 -101 -367q-76 -98 -195.5 -154t-252.5 -56q-131 0 -251 56t-196 154q-100 131 -100 367zM166 1481v129h172v-129h-172zM1090 1481v129h172v-129 h-172z" />
<glyph unicode="&#xdd;" />
<glyph unicode="&#xde;" />
<glyph unicode="&#xdf;" horiz-adv-x="1298" d="M162 805v151h90v320q0 193 88 299q51 59 136 95t179 36q170 0 283 -108.5t113 -274.5q0 -205 -172 -297q152 -57 239.5 -189t87.5 -302q0 -231 -164.5 -389t-418.5 -173v160q188 14 302.5 126t114.5 282q0 100 -48 189t-128 136q-53 31 -98 44.5t-143 25.5v147 q115 8 165 47q94 70 95 199q0 100 -65.5 165t-166.5 65q-70 0 -126 -32t-79 -83q-31 -68 -30 -244v-1200h-164v805h-90z" />
<glyph unicode="&#xe0;" horiz-adv-x="1165" d="M84 475q0 213 130 351.5t329 138.5q197 0 334 -156v133h163v-942h-163v131q-135 -158 -332 -158q-201 0 -331 142.5t-130 359.5zM248 1436l170 75l244 -327l-103 -58zM252 477q0 -156 89 -257t226 -101q141 0 230.5 98t89.5 256q0 154 -89 250t-231 96q-133 0 -224 -98.5 t-91 -243.5z" />
<glyph unicode="&#xe1;" horiz-adv-x="1165" d="M84 475q0 213 130 351.5t329 138.5q197 0 334 -156v133h163v-942h-163v131q-135 -158 -332 -158q-201 0 -331 142.5t-130 359.5zM252 477q0 -156 89 -257t226 -101q141 0 230.5 98t89.5 256q0 154 -89 250t-231 96q-133 0 -224 -98.5t-91 -243.5zM494 1184l243 327 l170 -75l-311 -310z" />
<glyph unicode="&#xe2;" horiz-adv-x="1165" d="M84 475q0 213 130 351.5t329 138.5q197 0 334 -156v133h163v-942h-163v131q-135 -158 -332 -158q-201 0 -331 142.5t-130 359.5zM244 1217l317 268l320 -268l-117 -91l-203 172l-203 -172zM252 477q0 -156 89 -257t226 -101q141 0 230.5 98t89.5 256q0 154 -89 250 t-231 96q-133 0 -224 -98.5t-91 -243.5z" />
<glyph unicode="&#xe3;" horiz-adv-x="1165" d="M84 475q0 213 130 351.5t329 138.5q197 0 334 -156v133h163v-942h-163v131q-135 -158 -332 -158q-201 0 -331 142.5t-130 359.5zM207 1206q39 63 67 94q57 63 144 64q63 0 159.5 -45t133.5 -45q57 0 110 94l97 -78q-72 -160 -216 -160q-53 0 -157 48q-98 43 -139 43 q-55 0 -101 -95zM252 477q0 -156 89 -257t226 -101q141 0 230.5 98t89.5 256q0 154 -89 250t-231 96q-133 0 -224 -98.5t-91 -243.5z" />
<glyph unicode="&#xe4;" horiz-adv-x="1165" d="M84 475q0 213 130 351.5t329 138.5q197 0 334 -156v133h163v-942h-163v131q-135 -158 -332 -158q-201 0 -331 142.5t-130 359.5zM252 477q0 -156 89 -257t226 -101q141 0 230.5 98t89.5 256q0 154 -89 250t-231 96q-133 0 -224 -98.5t-91 -243.5zM262 1247q0 47 34 81 t81 34t82 -34t35 -79q0 -47 -35 -80.5t-82 -33.5t-81 32.5t-34 79.5zM662 1247q0 47 33.5 81t82.5 34q47 0 82 -34t35 -79q0 -47 -35 -80.5t-82 -33.5t-81.5 33.5t-34.5 78.5z" />
<glyph unicode="&#xe5;" horiz-adv-x="1165" d="M84 475q0 213 130 351.5t329 138.5q197 0 334 -156v133h163v-942h-163v131q-135 -158 -332 -158q-201 0 -331 142.5t-130 359.5zM252 477q0 -156 89 -257t226 -101q141 0 230.5 98t89.5 256q0 154 -89 250t-231 96q-133 0 -224 -98.5t-91 -243.5zM365 1321q0 82 58 139.5 t140 57.5t139.5 -57.5t57.5 -137.5q0 -82 -58.5 -139.5t-140.5 -57.5q-80 0 -138 57.5t-58 137.5zM465 1325q0 -41 28.5 -68.5t69.5 -27.5q39 0 67.5 27.5t28.5 66.5t-28.5 66.5t-69.5 27.5q-39 0 -67.5 -26.5t-28.5 -65.5z" />
<glyph unicode="&#xe6;" horiz-adv-x="1796" d="M84 276q0 139 109.5 226.5t285.5 87.5q84 0 143.5 -17.5t131.5 -62.5q-2 160 -67.5 234.5t-203.5 74.5q-121 0 -295 -57v151q184 51 304 52q127 0 220 -50.5t134 -140.5q55 90 153.5 140.5t217.5 50.5q207 0 330.5 -138.5t123.5 -369.5v-21h-747q10 -143 93 -230t210 -87 q119 0 209 84q39 35 84 114l141 -79q-86 -139 -189.5 -202t-244.5 -63q-244 0 -373 189q-63 -100 -147 -144.5t-213 -44.5q-184 0 -297 83t-113 220zM246 283q0 -74 66.5 -119t176.5 -45q113 0 184.5 47t71.5 123q0 68 -70.5 110.5t-179 42.5t-179 -44.5t-70.5 -114.5z M936 575h561q-23 115 -97.5 179.5t-182.5 64.5q-156 0 -236 -125q-27 -41 -45 -119z" />
<glyph unicode="&#xe7;" horiz-adv-x="1030" d="M84 467q0 209 147.5 353.5t362.5 144.5q70 0 137 -19q80 -20 160 -72v-212q-37 39 -68 67q-98 88 -233 88q-143 0 -240.5 -100.5t-97.5 -247.5q0 -150 95 -250t239 -100q78 0 145 31q78 33 166 135v-213q-68 -45 -117 -66q-61 -27 -121 -33v-79h-167v92q-90 16 -158 53 q-115 66 -182.5 180.5t-67.5 247.5z" />
<glyph unicode="&#xe8;" horiz-adv-x="1087" d="M84 467q0 219 129 358.5t334 139.5t331 -136.5t126 -359.5v-33h-746q6 -143 89 -230t214 -87q121 0 205 78q41 41 90 118l137 -75q-55 -98 -116 -150q-133 -117 -322 -117q-209 0 -340 137.5t-131 356.5zM229 1436l170 75l244 -327l-102 -58zM268 573h563 q-23 111 -99.5 177.5t-181 66.5t-184.5 -69t-98 -175z" />
<glyph unicode="&#xe9;" horiz-adv-x="1087" d="M84 467q0 219 129 358.5t334 139.5t331 -136.5t126 -359.5v-33h-746q6 -143 89 -230t214 -87q121 0 205 78q41 41 90 118l137 -75q-55 -98 -116 -150q-133 -117 -322 -117q-209 0 -340 137.5t-131 356.5zM268 573h563q-23 111 -99.5 177.5t-181 66.5t-184.5 -69t-98 -175 zM444 1184l244 327l170 -75l-311 -310z" />
<glyph unicode="&#xea;" horiz-adv-x="1087" d="M84 467q0 219 129 358.5t334 139.5t331 -136.5t126 -359.5v-33h-746q6 -143 89 -230t214 -87q121 0 205 78q41 41 90 118l137 -75q-55 -98 -116 -150q-133 -117 -322 -117q-209 0 -340 137.5t-131 356.5zM225 1217l318 268l319 -268l-117 -91l-202 172l-203 -172z M268 573h563q-23 111 -99.5 177.5t-181 66.5t-184.5 -69t-98 -175z" />
<glyph unicode="&#xeb;" horiz-adv-x="1087" d="M84 467q0 219 129 358.5t334 139.5t331 -136.5t126 -359.5v-33h-746q6 -143 89 -230t214 -87q121 0 205 78q41 41 90 118l137 -75q-55 -98 -116 -150q-133 -117 -322 -117q-209 0 -340 137.5t-131 356.5zM227 1247q0 47 34 81t83 34q47 0 81 -33t34 -80t-34 -80.5 t-81 -33.5t-82 33.5t-35 78.5zM268 573h563q-23 111 -99.5 177.5t-181 66.5t-184.5 -69t-98 -175zM629 1247q0 47 33.5 81t82.5 34q47 0 81 -33t34 -80t-33.5 -80.5t-83.5 -33.5q-47 0 -80.5 33.5t-33.5 78.5z" />
<glyph unicode="&#xec;" horiz-adv-x="583" d="M-45 1436l170 75l244 -327l-103 -58zM188 0v942h164v-942h-164z" />
<glyph unicode="&#xed;" horiz-adv-x="583" d="M125 1184l244 327l170 -75l-312 -310zM143 0v942h164v-942h-164z" />
<glyph unicode="&#xee;" horiz-adv-x="653" d="M-68 1217l318 268l321 -268l-118 -91l-203 172l-201 -172zM170 0v942h164v-942h-164z" />
<glyph unicode="&#xef;" horiz-adv-x="493" d="M-127 1247q0 47 34 81t81 34q49 0 82.5 -33t33.5 -80t-33.5 -80.5t-82.5 -33.5q-47 0 -81 33.5t-34 78.5zM68 0v942h165v-942h-165zM197 1247q0 47 33.5 81t82.5 34q47 0 81 -33t34 -80t-34 -80.5t-83 -33.5q-47 0 -80.5 33.5t-33.5 78.5z" />
<glyph unicode="&#xf0;" />
<glyph unicode="&#xf1;" horiz-adv-x="1212" d="M125 0v942h166v-115q61 76 122.5 107t151.5 31q86 0 160 -35t113 -94q55 -82 55 -252v-584h-166v557q0 133 -31 184q-49 78 -168 78q-125 0 -181 -83t-56 -265v-471h-166zM154 1206q39 63 67 94q57 63 144 64q63 0 159 -45q102 -45 133 -45q61 0 111 94l96 -78 q-72 -160 -215 -160q-53 0 -157 48q-98 43 -140 43q-55 0 -100 -95z" />
<glyph unicode="&#xf2;" horiz-adv-x="1179" d="M84 461q0 213 145.5 358.5t356.5 145.5q217 0 363.5 -143.5t146.5 -352.5t-146.5 -352.5t-359.5 -143.5q-209 0 -357.5 142.5t-148.5 345.5zM252 473q0 -154 94 -254t240 -100q150 0 246 98t96 252q0 152 -95.5 250t-244.5 98q-143 0 -239.5 -98.5t-96.5 -245.5z M276 1436l170 75l242 -327l-102 -58z" />
<glyph unicode="&#xf3;" horiz-adv-x="1179" d="M84 461q0 213 145.5 358.5t356.5 145.5q217 0 363.5 -143.5t146.5 -352.5t-146.5 -352.5t-359.5 -143.5q-209 0 -357.5 142.5t-148.5 345.5zM252 473q0 -154 94 -254t240 -100q150 0 246 98t96 252q0 152 -95.5 250t-244.5 98q-143 0 -239.5 -98.5t-96.5 -245.5z M492 1184l241 327l170 -75l-309 -310z" />
<glyph unicode="&#xf4;" horiz-adv-x="1179" d="M84 461q0 213 145.5 358.5t356.5 145.5q217 0 363.5 -143.5t146.5 -352.5t-146.5 -352.5t-359.5 -143.5q-209 0 -357.5 142.5t-148.5 345.5zM252 473q0 -154 94 -254t240 -100q150 0 246 98t96 252q0 152 -95.5 250t-244.5 98q-143 0 -239.5 -98.5t-96.5 -245.5z M270 1217l318 268l321 -268l-118 -91l-203 172l-201 -172z" />
<glyph unicode="&#xf5;" horiz-adv-x="1179" d="M84 461q0 213 145.5 358.5t356.5 145.5q217 0 363.5 -143.5t146.5 -352.5t-146.5 -352.5t-359.5 -143.5q-209 0 -357.5 142.5t-148.5 345.5zM233 1206q45 68 68 94q59 63 145 64q63 0 160 -45q100 -45 131 -45q33 0 58.5 20.5t54.5 73.5l96 -78q-74 -160 -217 -160 q-51 0 -156 48q-98 43 -139 43q-33 0 -55.5 -20.5t-46.5 -74.5zM252 473q0 -154 94 -254t240 -100q150 0 246 98t96 252q0 152 -95.5 250t-244.5 98q-143 0 -239.5 -98.5t-96.5 -245.5z" />
<glyph unicode="&#xf6;" horiz-adv-x="1179" d="M84 461q0 213 145.5 358.5t356.5 145.5q217 0 363.5 -143.5t146.5 -352.5t-146.5 -352.5t-359.5 -143.5q-209 0 -357.5 142.5t-148.5 345.5zM252 473q0 -154 94 -254t240 -100q150 0 246 98t96 252q0 152 -95.5 250t-244.5 98q-143 0 -239.5 -98.5t-96.5 -245.5z M274 1247q0 47 34 81t81 34t82 -34t35 -79q0 -47 -35 -80.5t-82 -33.5t-81 32.5t-34 79.5zM674 1247q0 47 33.5 81t83.5 34q47 0 81.5 -34t34.5 -79q0 -47 -34.5 -80.5t-82 -33.5t-82 33.5t-34.5 78.5z" />
<glyph unicode="&#xf7;" horiz-adv-x="1865" d="M205 717v164h1444v-164h-1444zM823 438q0 47 33 81t80 34t80 -33t33 -80t-33 -80.5t-80 -33.5t-80 33.5t-33 78.5zM825 1159q0 47 33 80t80 33t80 -33t33 -80t-33 -81t-80 -34q-45 0 -79 34t-34 81z" />
<glyph unicode="&#xf8;" horiz-adv-x="3041" d="M162 0v1599l1192 -1253v1190h174v-1606l-1196 1254v-1184h-170zM1628 475q0 209 145.5 354.5t354.5 145.5q217 0 363.5 -144.5t146.5 -357.5q0 -211 -146.5 -356.5t-359.5 -145.5q-211 0 -357.5 145.5t-146.5 358.5zM1794 473q0 -152 95.5 -251t240.5 -99 q147 0 242.5 99.5t95.5 253t-95.5 252.5t-240.5 99q-147 0 -242.5 -100t-95.5 -254zM2654 90q0 49 32 82t79 33q49 0 81.5 -33t32.5 -82q0 -47 -32.5 -80t-79.5 -33t-80 33t-33 80z" />
<glyph unicode="&#xf9;" horiz-adv-x="1011" d="M125 375v567h166v-549q0 -121 28 -176q25 -45 75 -71.5t112 -26.5q131 0 184 98q31 57 31 176v549h164v-567q0 -106 -18.5 -170t-67.5 -115q-104 -117 -293 -117q-186 0 -293 117q-49 53 -68.5 116t-19.5 169zM190 1436l172 75l242 -327l-102 -58z" />
<glyph unicode="&#xfa;" horiz-adv-x="1011" d="M125 375v567h166v-549q0 -121 28 -176q25 -45 75 -71.5t112 -26.5q131 0 184 98q31 57 31 176v549h164v-567q0 -106 -18.5 -170t-67.5 -115q-104 -117 -293 -117q-186 0 -293 117q-49 53 -68.5 116t-19.5 169zM406 1184l243 327l170 -75l-311 -310z" />
<glyph unicode="&#xfb;" horiz-adv-x="1011" d="M125 375v567h166v-549q0 -121 28 -176q25 -45 75 -71.5t112 -26.5q131 0 184 98q31 57 31 176v549h164v-567q0 -106 -18.5 -170t-67.5 -115q-104 -117 -293 -117q-186 0 -293 117q-49 53 -68.5 116t-19.5 169zM186 1217l318 268l319 -268l-116 -91l-203 172l-203 -172z " />
<glyph unicode="&#xfc;" horiz-adv-x="1011" d="M125 375v567h166v-549q0 -121 28 -176q25 -45 75 -71.5t112 -26.5q131 0 184 98q31 57 31 176v549h164v-567q0 -106 -18.5 -170t-67.5 -115q-104 -117 -293 -117q-186 0 -293 117q-49 53 -68.5 116t-19.5 169zM188 1247q0 47 34 81t83 34q47 0 81 -33t34 -80t-34 -80.5 t-81 -33.5t-82 33.5t-35 78.5zM590 1247q0 47 33.5 81t83.5 34q47 0 80.5 -33t33.5 -80t-33.5 -80.5t-82.5 -33.5q-47 0 -81 33.5t-34 78.5z" />
<glyph unicode="&#xfd;" />
<glyph unicode="&#xfe;" />
<glyph unicode="&#xff;" horiz-adv-x="1226" d="M0 956h190l336 -684l312 684h184l-707 -1495h-184l309 629zM195 1266q0 49 33.5 82.5t82.5 33.5q47 0 82 -33.5t35 -80.5t-35 -81t-82 -34t-81.5 34t-34.5 79zM596 1266q0 49 34 82.5t83 33.5q47 0 80.5 -33.5t33.5 -80.5t-33.5 -81t-80.5 -34t-82 34t-35 79z" />
<glyph unicode="&#x152;" horiz-adv-x="2357" d="M92 766q0 330 233.5 562.5t563.5 232.5q178 0 332 -74q82 -41 138 -92.5t146 -159.5v301h787v-160h-615v-456h598v-160h-598v-600h615v-160h-787v295q-84 -104 -137 -153.5t-133 -90.5q-154 -80 -342 -80q-330 0 -565.5 233.5t-235.5 561.5zM262 768q0 -260 182.5 -446.5 t438.5 -186.5t439 184.5t183 444.5q0 262 -182 448.5t-436 186.5q-256 0 -440.5 -185.5t-184.5 -445.5z" />
<glyph unicode="&#x153;" horiz-adv-x="1937" d="M84 467q0 207 148.5 352.5t361.5 145.5q131 0 241.5 -60.5t170.5 -165.5q53 106 156.5 166t230.5 60q209 0 334.5 -134.5t125.5 -355.5v-35h-753q8 -141 95 -231t218 -90q182 0 289 203l139 -82q-59 -98 -123 -152q-133 -115 -315 -115q-129 0 -237.5 61.5t-159.5 164.5 q-68 -106 -177.5 -166t-242.5 -60q-209 0 -355.5 144.5t-146.5 349.5zM252 471q0 -154 93 -253t239 -99q150 0 246 97t96 249q0 156 -94.5 254t-243.5 98q-145 0 -240.5 -98t-95.5 -248zM1114 575h565q-23 117 -96.5 179.5t-185.5 62.5q-222 0 -283 -242z" />
<glyph unicode="&#x178;" horiz-adv-x="1312" d="M-29 1536h199l391 -686l397 686h199l-512 -874v-662h-172v662zM229 1806q0 49 34 84t83 35t83 -35t34 -82q0 -49 -34 -83.5t-83 -34.5q-47 0 -82 34.5t-35 81.5zM666 1806q0 49 34.5 84t84 35t83 -35t33.5 -82q0 -49 -35 -83.5t-82 -34.5t-82.5 34.5t-35.5 81.5z" />
<glyph unicode="&#x2c6;" horiz-adv-x="1030" d="M123 1235l317 272l320 -272l-119 -90l-201 174l-202 -174z" />
<glyph unicode="&#x2dc;" horiz-adv-x="1167" d="M166 1225q39 61 67 96q57 63 144 63q63 0 160 -45q100 -47 133 -47q57 0 110 97l97 -78q-74 -164 -215 -164q-53 0 -158 47q-102 45 -139 45q-55 0 -101 -94z" />
<glyph unicode="&#x2000;" horiz-adv-x="1043" />
<glyph unicode="&#x2001;" horiz-adv-x="2087" />
<glyph unicode="&#x2002;" horiz-adv-x="1043" />
<glyph unicode="&#x2003;" horiz-adv-x="2087" />
<glyph unicode="&#x2004;" horiz-adv-x="695" />
<glyph unicode="&#x2005;" horiz-adv-x="521" />
<glyph unicode="&#x2006;" horiz-adv-x="347" />
<glyph unicode="&#x2007;" horiz-adv-x="347" />
<glyph unicode="&#x2008;" horiz-adv-x="260" />
<glyph unicode="&#x2009;" horiz-adv-x="417" />
<glyph unicode="&#x200a;" horiz-adv-x="115" />
<glyph unicode="&#x2010;" horiz-adv-x="370" d="M0 371v131h371v-131h-371z" />
<glyph unicode="&#x2011;" horiz-adv-x="370" d="M0 371v131h371v-131h-371z" />
<glyph unicode="&#x2012;" horiz-adv-x="370" d="M0 371v131h371v-131h-371z" />
<glyph unicode="&#x2013;" horiz-adv-x="1249" d="M145 418v147h768v-147h-768z" />
<glyph unicode="&#x2014;" horiz-adv-x="2412" d="M477 717v164h1444v-164h-1444z" />
<glyph unicode="&#x2018;" horiz-adv-x="356" d="M104 1536h148l-23 -530h-108z" />
<glyph unicode="&#x2019;" horiz-adv-x="356" d="M104 1534h148l-23 -530h-108z" />
<glyph unicode="&#x201a;" horiz-adv-x="686" d="M78 -301l190 532l150 -55l-232 -520z" />
<glyph unicode="&#x201c;" horiz-adv-x="696" d="M104 1536h150l-25 -532h-108zM440 1536h152l-27 -532h-108z" />
<glyph unicode="&#x201d;" horiz-adv-x="696" d="M104 1536h150l-25 -532h-108zM440 1536h152l-27 -532h-108z" />
<glyph unicode="&#x201e;" />
<glyph unicode="&#x2022;" horiz-adv-x="1536" d="M451 784q0 131 93 226.5t222 95.5q133 0 225 -94t92 -230q0 -133 -92 -227t-223 -94t-224 95t-93 228z" />
<glyph unicode="&#x2026;" horiz-adv-x="1888" d="M84 92q0 45 30.5 77t76 32t78 -32t32.5 -75q0 -47 -32.5 -79.5t-80.5 -32.5q-43 0 -73.5 32.5t-30.5 77.5zM592 92q0 47 29.5 78t74.5 31t78 -32t33 -75q0 -47 -32 -79.5t-79 -32.5q-45 0 -74.5 31.5t-29.5 78.5zM1098 92q0 45 30.5 77t75.5 32t78 -32t33 -75 q0 -47 -33 -79.5t-80 -32.5q-43 0 -73.5 32.5t-30.5 77.5z" />
<glyph unicode="&#x202f;" horiz-adv-x="417" />
<glyph unicode="&#x2039;" horiz-adv-x="679" d="M63 492l345 432l108 -84l-274 -348l274 -338l-108 -86z" />
<glyph unicode="&#x203a;" horiz-adv-x="679" d="M92 154l275 338l-275 348l107 84l344 -432l-344 -424z" />
<glyph unicode="&#x205f;" horiz-adv-x="521" />
<glyph unicode="&#x20ac;" horiz-adv-x="1652" d="M145 539v166h158q-2 30 -2 61q0 52 6 106h-162v168h205q82 238 298 384.5t470 146.5q209 0 434 -146l-22 -186q-186 168 -432 168q-176 0 -333 -102.5t-226 -264.5h966l-20 -168h-1000q-7 -39 -7 -108q0 -28 1 -59h985l-20 -166h-926q61 -180 227 -295t357 -115 q145 0 301 78l-23 -191q-147 -47 -278 -47q-268 0 -474 157t-294 413h-189z" />
<glyph unicode="&#x2122;" horiz-adv-x="1675" d="M0 1432v104h530v-104h-208v-770h-113v770h-209zM612 662l152 931l330 -727l338 727l141 -931h-109l-80 591l-290 -637l-289 639l-84 -593h-109z" />
<glyph unicode="&#x25fc;" horiz-adv-x="940" d="M0 0v940h940v-940h-940z" />
<glyph unicode="&#xfb01;" horiz-adv-x="5179" d="M0 -508v2511h4465v-2511h-4465zM199 154q84 -59 186 -101q170 -78 344 -78q184 0 328.5 73t212.5 196q51 117 51 280.5t-96 272.5q-47 51 -108.5 82.5t-170.5 64.5q-39 14 -85 28.5t-50 16.5q-70 23 -100 53q-35 31 -35 78q0 55 47 93t121 38q133 0 258 -106l158 313 q-225 121 -482 121q-231 0 -374.5 -141.5t-143.5 -368.5q0 -250 178 -344q74 -39 236 -84q96 -31 134 -48.5t69 -47.5q31 -29 30 -80q0 -70 -51 -111t-139 -41q-174 0 -352 160zM1430 15q0 -6 8 -7h395q10 0 14 15l97 243q2 6 18 6h524q12 0 15 -6l90 -243q10 -14 20 -15 h395q10 0 11 15l-572 1505q-4 10 -14 10h-408q-14 0 -18 -10l-573 -1505q-2 -5 -2 -8zM2062 588q0 -8 11 -8h305q8 0 6 8l-156 459q0 6 -2 8q-4 -2 -4 -8zM3019 1200h321v-1192h398v1192h327v334h-1046v-334z" />
<glyph unicode="&#xfb02;" horiz-adv-x="5179" d="M0 -508v2511h4465v-2511h-4465zM199 154q84 -59 186 -101q170 -78 344 -78q184 0 328.5 73t212.5 196q51 117 51 280.5t-96 272.5q-47 51 -108.5 82.5t-170.5 64.5q-39 14 -85 28.5t-50 16.5q-70 23 -100 53q-35 31 -35 78q0 55 47 93t121 38q133 0 258 -106l158 313 q-225 121 -482 121q-231 0 -374.5 -141.5t-143.5 -368.5q0 -250 178 -344q74 -39 236 -84q96 -31 134 -48.5t69 -47.5q31 -29 30 -80q0 -70 -51 -111t-139 -41q-174 0 -352 160zM1430 15q0 -6 8 -7h395q10 0 14 15l97 243q2 6 18 6h524q12 0 15 -6l90 -243q10 -14 20 -15 h395q10 0 11 15l-572 1505q-4 10 -14 10h-408q-14 0 -18 -10l-573 -1505q-2 -5 -2 -8zM2062 588q0 -8 11 -8h305q8 0 6 8l-156 459q0 6 -2 8q-4 -2 -4 -8zM3019 1200h321v-1192h398v1192h327v334h-1046v-334z" />
<glyph unicode="&#xfb03;" horiz-adv-x="1501" d="M25 793v149h92v256q0 115 24 182q27 72 96.5 114t161.5 42q55 0 121 -20v-162q-63 23 -110 22q-51 0 -84 -26q-27 -23 -36 -61t-9 -128v-219h239v-149h-239v-793h-164v793h-92zM555 793v149h92v256q0 115 25 182q27 72 96.5 114t161.5 42q55 0 121 -20v-162 q-63 23 -111 22q-51 0 -84 -26q-27 -23 -36 -61t-9 -128v-219h240v-149h-240v-793h-164v793h-92zM1163 1296q0 49 35 83t84 34q47 0 82 -33.5t35 -81.5q0 -49 -35 -82.5t-84 -33.5q-47 0 -82 33.5t-35 80.5zM1198 0v942h166v-942h-166z" />
<glyph unicode="&#xfb04;" horiz-adv-x="1476" d="M25 793v149h92v256q0 115 24 182q27 72 96.5 114t161.5 42q55 0 121 -20v-162q-63 23 -110 22q-51 0 -84 -26q-27 -23 -36 -61t-9 -128v-219h239v-149h-239v-793h-164v793h-92zM555 793v149h92v256q0 115 25 182q27 72 96.5 114t161.5 42q55 0 121 -20v-162 q-63 23 -111 22q-51 0 -84 -26q-27 -23 -36 -61t-9 -128v-219h240v-149h-240v-793h-164v793h-92zM1186 0v1536h166v-1536h-166z" />
</font>
</defs>
</svg>
